<svg width="1280" height="360" viewBox="0 0 1280 360" fill="none" xmlns="http://www.w3.org/2000/svg">
  <defs>
    <linearGradient id="bg" x1="40" y1="24" x2="1240" y2="336" gradientUnits="userSpaceOnUse">
      <stop stop-color="#07162B"/>
      <stop offset="0.5" stop-color="#102F54"/>
      <stop offset="1" stop-color="#071B33"/>
    </linearGradient>
    <linearGradient id="accent" x1="96" y1="64" x2="300" y2="256" gradientUnits="userSpaceOnUse">
      <stop stop-color="#41E0FF"/>
      <stop offset="1" stop-color="#2E7DFF"/>
    </linearGradient>
    <linearGradient id="panel" x1="384" y1="44" x2="1208" y2="316" gradientUnits="userSpaceOnUse">
      <stop stop-color="#F7FAFF" stop-opacity="0.98"/>
      <stop offset="1" stop-color="#EAF2FF" stop-opacity="0.94"/>
    </linearGradient>
    <filter id="shadow" x="20" y="12" width="1240" height="336" filterUnits="userSpaceOnUse" color-interpolation-filters="sRGB">
      <feDropShadow dx="0" dy="10" stdDeviation="12" flood-color="#020817" flood-opacity="0.22"/>
    </filter>
  </defs>
  <g filter="url(#shadow)">
    <rect x="40" y="24" width="1200" height="312" rx="28" fill="url(#bg)"/>
    <rect x="384" y="44" width="824" height="272" rx="24" fill="url(#panel)"/>
  </g>
  <rect x="84" y="64" width="188" height="188" rx="32" fill="#08111F" stroke="#12375E" stroke-width="3"/>
  <rect x="118" y="100" width="92" height="112" rx="16" fill="url(#accent)" opacity="0.18"/>
  <path d="M132 116C132 107.163 139.163 100 148 100H198L224 126V196C224 204.837 216.837 212 208 212H148C139.163 212 132 204.837 132 196V116Z" fill="url(#accent)"/>
  <path d="M198 100V118C198 126.837 205.163 134 214 134H224" fill="#93F8FF"/>
  <path d="M198 100V118C198 126.837 205.163 134 214 134H224" stroke="#93F8FF" stroke-width="6" stroke-linecap="round" stroke-linejoin="round"/>
  <path d="M156 154H199" stroke="#DDFBFF" stroke-width="7" stroke-linecap="round"/>
  <path d="M156 176H199" stroke="#DDFBFF" stroke-width="7" stroke-linecap="round"/>
  <path d="M156 198H186" stroke="#DDFBFF" stroke-width="7" stroke-linecap="round"/>
  <g opacity="0.92">
    <circle cx="244" cy="118" r="4.5" fill="#46E0FF"/>
    <circle cx="257" cy="136" r="3.5" fill="#7FDFFF"/>
    <circle cx="266" cy="158" r="3.5" fill="#46E0FF"/>
    <circle cx="259" cy="182" r="4.5" fill="#7FDFFF"/>
    <circle cx="244" cy="201" r="3.5" fill="#46E0FF"/>
    <circle cx="232" cy="96" r="3" fill="#7FDFFF"/>
    <circle cx="218" cy="84" r="2.5" fill="#46E0FF"/>
    <circle cx="199" cy="77" r="2.5" fill="#7FDFFF"/>
    <circle cx="177" cy="76" r="2.5" fill="#46E0FF"/>
    <circle cx="158" cy="82" r="2.5" fill="#7FDFFF"/>
    <circle cx="142" cy="95" r="3" fill="#46E0FF"/>
    <circle cx="132" cy="113" r="3" fill="#7FDFFF"/>
    <path d="M214 124C228 124 239 115 244 118" stroke="#3FD4FF" stroke-width="2"/>
    <path d="M214 134C233 138 248 132 257 136" stroke="#7FDFFF" stroke-width="2"/>
    <path d="M214 146C240 148 255 150 266 158" stroke="#46E0FF" stroke-width="2"/>
    <path d="M214 158C236 160 248 170 259 182" stroke="#7FDFFF" stroke-width="2"/>
    <path d="M214 170C232 174 238 191 244 201" stroke="#46E0FF" stroke-width="2"/>
    <path d="M168 100C160 90 154 87 142 95" stroke="#46E0FF" stroke-width="1.8"/>
    <path d="M177 94C172 84 166 80 158 82" stroke="#7FDFFF" stroke-width="1.8"/>
    <path d="M187 92C185 82 183 79 177 76" stroke="#46E0FF" stroke-width="1.8"/>
    <path d="M198 92C198 82 198 79 199 77" stroke="#7FDFFF" stroke-width="1.8"/>
    <path d="M209 95C214 87 216 85 218 84" stroke="#46E0FF" stroke-width="1.8"/>
    <path d="M219 102C225 98 229 96 232 96" stroke="#7FDFFF" stroke-width="1.8"/>
  </g>
  <text x="84" y="294" fill="#E8F4FF" font-size="34" font-family="Segoe UI, Arial, sans-serif" font-weight="700">Word Revision</text>
  <text x="84" y="324" fill="#69D7FF" font-size="22" font-family="Segoe UI, Arial, sans-serif" font-weight="600">Agentic Review Workflow</text>
  <text x="430" y="126" fill="#10213F" font-size="72" font-family="Segoe UI, Arial, sans-serif" font-weight="800" letter-spacing="4">WORD REVISION</text>
  <text x="430" y="202" fill="#17335D" font-size="72" font-family="Segoe UI, Arial, sans-serif" font-weight="800" letter-spacing="4">AGENT</text>
  <text x="432" y="240" fill="#3E5F8E" font-size="22" font-family="Segoe UI, Arial, sans-serif" font-weight="600" letter-spacing="0.8">AGENTIC DOCX REVIEW | REPORT GENERATION</text>
  <text x="432" y="268" fill="#5473A2" font-size="22" font-family="Segoe UI, Arial, sans-serif" font-weight="600" letter-spacing="0.8">FORMAT PROFILES</text>
  <g>
    <rect x="432" y="284" width="148" height="24" rx="12" fill="#0E2C52"/>
    <text x="458" y="300" fill="#F8FBFF" font-size="13" font-family="Segoe UI, Arial, sans-serif" font-weight="700">STREAMLIT UI</text>
    <rect x="594" y="284" width="132" height="24" rx="12" fill="#144A79"/>
    <text x="620" y="300" fill="#F8FBFF" font-size="13" font-family="Segoe UI, Arial, sans-serif" font-weight="700">WORD COM</text>
    <rect x="740" y="284" width="132" height="24" rx="12" fill="#2167A8"/>
    <text x="762" y="300" fill="#F8FBFF" font-size="13" font-family="Segoe UI, Arial, sans-serif" font-weight="700">LANGGRAPH</text>
    <rect x="886" y="284" width="152" height="24" rx="12" fill="#2E7DFF"/>
    <text x="907" y="300" fill="#F8FBFF" font-size="13" font-family="Segoe UI, Arial, sans-serif" font-weight="700">PYTHON-DOCX</text>
  </g>
</svg>
